<svg width="17" height="20" viewBox="0 0 17 20" fill="none" xmlns="http://www.w3.org/2000/svg">
<path d="M8.50001 15.292C12.0094 15.292 15.079 16.8014 16.7484 19.0534L14.9831 19.8882C13.6242 18.2782 11.2284 17.2087 8.50001 17.2087C5.77164 17.2087 3.3758 18.2782 2.01689 19.8882L0.252594 19.0525C1.92201 16.8004 4.99059 15.292 8.50001 15.292ZM8.50001 0.916992C9.77084 0.916992 10.9896 1.42183 11.8882 2.32044C12.7868 3.21905 13.2917 4.43783 13.2917 5.70866V8.58366C13.2916 9.81844 12.8149 11.0055 11.9609 11.8974C11.1069 12.7892 9.94158 13.3169 8.70797 13.3705L8.50001 13.3753C7.22918 13.3753 6.0104 12.8705 5.11179 11.9719C4.21318 11.0733 3.70834 9.85449 3.70834 8.58366V5.70866C3.70842 4.47388 4.18515 3.2868 5.03914 2.39496C5.89313 1.50312 7.05844 0.975373 8.29205 0.921784L8.50001 0.916992ZM8.50001 2.83366C7.76668 2.83362 7.06106 3.1138 6.52751 3.61689C5.99396 4.11997 5.67282 4.80793 5.6298 5.53999L5.62501 5.70866V8.58366C5.62429 9.33203 5.9154 10.0512 6.4365 10.5883C6.95759 11.1255 7.6676 11.4382 8.41564 11.4602C9.16369 11.4822 9.89082 11.2116 10.4425 10.7059C10.9942 10.2003 11.327 9.49945 11.3702 8.75233L11.375 8.58366V5.70866C11.375 4.94616 11.0721 4.21489 10.5329 3.67573C9.99378 3.13656 9.26251 2.83366 8.50001 2.83366Z" fill="#98A7B5"/>
</svg>
