<svg width="23" height="23" viewBox="0 0 23 23" fill="none" xmlns="http://www.w3.org/2000/svg">
<g clip-path="url(#clip0_612_726)">
<path d="M17.9333 11.4997H13.4167C12.9083 11.4997 12.4208 11.2978 12.0614 10.9383C11.7019 10.5789 11.5 10.0914 11.5 9.58302V5.05394C11.5013 4.61309 11.4012 4.17784 11.2075 3.78185C11.0137 3.38586 10.7315 3.03973 10.3826 2.77023C10.052 2.50842 9.66566 2.32611 9.2534 2.23738C8.84114 2.14865 8.414 2.15587 8.00497 2.25848C5.68164 2.83521 3.62475 4.18766 2.17445 6.09216C0.724144 7.99666 -0.0326887 10.3391 0.0291099 12.7322C0.0909084 15.1252 0.967636 17.4255 2.5143 19.2526C4.06097 21.0797 6.18493 22.3242 8.53493 22.7802C11.1772 23.286 13.9128 22.7624 16.1815 21.3168C18.4503 19.8711 20.0805 17.6128 20.7383 15.0043C20.8413 14.5948 20.8488 14.167 20.7603 13.7541C20.6717 13.3412 20.4895 12.9541 20.2276 12.6229C19.9549 12.2745 19.6068 11.9924 19.2094 11.7979C18.812 11.6033 18.3757 11.5014 17.9333 11.4997ZM18.8801 14.5357C18.5132 16.0133 17.7604 17.3669 16.6987 18.4582C15.6369 19.5494 14.3044 20.339 12.8374 20.7462C11.3704 21.1535 9.8215 21.1638 8.34921 20.776C6.87691 20.3883 5.53402 19.6164 4.4579 18.5394C3.38178 17.4624 2.61104 16.1189 2.22452 14.6463C1.838 13.1737 1.84956 11.6248 2.25804 10.1581C2.66651 8.69144 3.45723 7.35958 4.54932 6.29876C5.64141 5.23793 6.99567 4.48623 8.4736 4.12052C8.60003 4.08893 8.73211 4.08739 8.85925 4.11601C8.98639 4.14463 9.10506 4.20263 9.20576 4.28535C9.32468 4.37602 9.42112 4.49286 9.4876 4.62681C9.55408 4.76076 9.58881 4.90823 9.5891 5.05777V9.58302C9.5891 10.5997 9.99297 11.5747 10.7119 12.2936C11.4307 13.0125 12.4058 13.4164 13.4224 13.4164H17.9381C18.0889 13.417 18.2377 13.4518 18.3731 13.5182C18.5086 13.5846 18.6272 13.6808 18.7201 13.7997C18.8016 13.9018 18.8583 14.0214 18.8859 14.149C18.9135 14.2767 18.9112 14.409 18.8792 14.5357H18.8801Z" fill="#98A7B5"/>
<path d="M22.6655 7.13545C22.2243 5.51344 21.3672 4.03476 20.179 2.84573C18.9909 1.65671 17.5128 0.798554 15.8911 0.356196C15.7211 0.310492 15.5458 0.287294 15.3698 0.287196C15.1165 0.28479 14.8653 0.33259 14.6307 0.427834C14.396 0.523078 14.1826 0.663877 14.0027 0.842096C13.8228 1.02031 13.68 1.23242 13.5825 1.46616C13.485 1.69989 13.4349 1.95062 13.4349 2.20386V6.70803C13.4349 7.47053 13.7378 8.20179 14.2769 8.74096C14.8161 9.28013 15.5474 9.58303 16.3099 9.58303H20.8323C21.1281 9.58018 21.4192 9.50918 21.6831 9.37553C21.947 9.24188 22.1766 9.04919 22.3539 8.81242C22.5313 8.57565 22.6516 8.30119 22.7057 8.01034C22.7597 7.7195 22.746 7.42012 22.6655 7.13545ZM20.2716 7.66636H16.306C16.0519 7.66636 15.8081 7.56539 15.6284 7.38567C15.4487 7.20595 15.3477 6.96219 15.3477 6.70803L15.34 2.21057C15.3471 2.2055 15.3554 2.20251 15.364 2.20195H15.3889C16.6943 2.55757 17.8835 3.24932 18.838 4.20816C19.7925 5.167 20.4788 6.35941 20.8284 7.66636H20.2716Z" fill="#98A7B5"/>
</g>
<defs>
<clipPath id="clip0_612_726">
<rect width="23" height="23" fill="white"/>
</clipPath>
</defs>
</svg>
