<svg width="19" height="19" viewBox="0 0 19 19" fill="none" xmlns="http://www.w3.org/2000/svg">
<path d="M7.58333 5.66667H11.4167V4.22917C11.4167 3.56578 11.6134 2.91728 11.9819 2.36569C12.3505 1.8141 12.8744 1.38419 13.4873 1.13032C14.1001 0.876453 14.7746 0.81003 15.4252 0.939451C16.0758 1.06887 16.6735 1.38833 17.1426 1.85741C17.6117 2.3265 17.9311 2.92416 18.0606 3.5748C18.19 4.22545 18.1235 4.89986 17.8697 5.51275C17.6158 6.12565 17.1859 6.6495 16.6343 7.01806C16.0827 7.38662 15.4342 7.58333 14.7708 7.58333H13.3333V11.4167H14.7708C15.4342 11.4167 16.0827 11.6134 16.6343 11.9819C17.1859 12.3505 17.6158 12.8744 17.8697 13.4873C18.1235 14.1001 18.19 14.7746 18.0606 15.4252C17.9311 16.0758 17.6117 16.6735 17.1426 17.1426C16.6735 17.6117 16.0758 17.9311 15.4252 18.0606C14.7746 18.19 14.1001 18.1235 13.4873 17.8697C12.8744 17.6158 12.3505 17.1859 11.9819 16.6343C11.6134 16.0827 11.4167 15.4342 11.4167 14.7708V13.3333H7.58333V14.7708C7.58333 15.4342 7.38662 16.0827 7.01806 16.6343C6.6495 17.1859 6.12565 17.6158 5.51275 17.8697C4.89986 18.1235 4.22545 18.19 3.5748 18.0606C2.92416 17.9311 2.3265 17.6117 1.85741 17.1426C1.38833 16.6735 1.06887 16.0758 0.939451 15.4252C0.81003 14.7746 0.876453 14.1001 1.13032 13.4873C1.38419 12.8744 1.8141 12.3505 2.36569 11.9819C2.91728 11.6134 3.56578 11.4167 4.22917 11.4167H5.66667V7.58333H4.22917C3.56578 7.58333 2.91728 7.38662 2.36569 7.01806C1.8141 6.6495 1.38419 6.12565 1.13032 5.51275C0.876453 4.89986 0.81003 4.22545 0.939451 3.5748C1.06887 2.92416 1.38833 2.3265 1.85741 1.85741C2.3265 1.38833 2.92416 1.06887 3.5748 0.939451C4.22545 0.81003 4.89986 0.876453 5.51275 1.13032C6.12565 1.38419 6.6495 1.8141 7.01806 2.36569C7.38662 2.91728 7.58333 3.56578 7.58333 4.22917V5.66667ZM5.66667 5.66667V4.22917C5.66667 3.94486 5.58236 3.66693 5.42441 3.43054C5.26645 3.19414 5.04194 3.00989 4.77928 2.90109C4.51661 2.79229 4.22757 2.76382 3.94873 2.81929C3.66988 2.87476 3.41374 3.01166 3.2127 3.2127C3.01166 3.41374 2.87476 3.66988 2.81929 3.94873C2.76382 4.22757 2.79229 4.51661 2.90109 4.77928C3.00989 5.04194 3.19414 5.26645 3.43054 5.42441C3.66693 5.58236 3.94486 5.66667 4.22917 5.66667H5.66667ZM5.66667 13.3333H4.22917C3.94486 13.3333 3.66693 13.4176 3.43054 13.5756C3.19414 13.7336 3.00989 13.9581 2.90109 14.2207C2.79229 14.4834 2.76382 14.7724 2.81929 15.0513C2.87476 15.3301 3.01166 15.5863 3.2127 15.7873C3.41374 15.9883 3.66988 16.1252 3.94873 16.1807C4.22757 16.2362 4.51661 16.2077 4.77928 16.0989C5.04194 15.9901 5.26645 15.8059 5.42441 15.5695C5.58236 15.3331 5.66667 15.0551 5.66667 14.7708V13.3333ZM13.3333 5.66667H14.7708C15.0551 5.66667 15.3331 5.58236 15.5695 5.42441C15.8059 5.26645 15.9901 5.04194 16.0989 4.77928C16.2077 4.51661 16.2362 4.22757 16.1807 3.94873C16.1252 3.66988 15.9883 3.41374 15.7873 3.2127C15.5863 3.01166 15.3301 2.87476 15.0513 2.81929C14.7724 2.76382 14.4834 2.79229 14.2207 2.90109C13.9581 3.00989 13.7336 3.19414 13.5756 3.43054C13.4176 3.66693 13.3333 3.94486 13.3333 4.22917V5.66667ZM13.3333 13.3333V14.7708C13.3333 15.0551 13.4176 15.3331 13.5756 15.5695C13.7336 15.8059 13.9581 15.9901 14.2207 16.0989C14.4834 16.2077 14.7724 16.2362 15.0513 16.1807C15.3301 16.1252 15.5863 15.9883 15.7873 15.7873C15.9883 15.5863 16.1252 15.3301 16.1807 15.0513C16.2362 14.7724 16.2077 14.4834 16.0989 14.2207C15.9901 13.9581 15.8059 13.7336 15.5695 13.5756C15.3331 13.4176 15.0551 13.3333 14.7708 13.3333H13.3333ZM7.58333 7.58333V11.4167H11.4167V7.58333H7.58333Z" fill="#98A7B5"/>
</svg>
