<svg width="20" height="22" viewBox="0 0 20 22" fill="none" xmlns="http://www.w3.org/2000/svg">
<path d="M1.34 15.9998C0.91727 15.2688 0.588664 14.4873 0.362 13.6738C0.855307 13.4229 1.26959 13.0404 1.55903 12.5687C1.84846 12.097 2.00176 11.5544 2.00197 11.0009C2.00218 10.4475 1.84928 9.90477 1.5602 9.43282C1.27112 8.96088 0.857119 8.57809 0.364 8.32682C0.816036 6.69231 1.67673 5.19977 2.865 3.98982C3.32909 4.29155 3.86762 4.45898 4.42098 4.4736C4.97434 4.48822 5.52095 4.34945 6.00033 4.07265C6.47971 3.79586 6.87315 3.39182 7.13713 2.90526C7.4011 2.41871 7.52531 1.8686 7.496 1.31582C9.13811 0.891445 10.8612 0.892133 12.503 1.31782C12.474 1.87059 12.5984 2.42061 12.8626 2.90703C13.1268 3.39345 13.5204 3.7973 13.9998 4.07388C14.4793 4.35047 15.0259 4.48901 15.5793 4.47417C16.1326 4.45934 16.671 4.2917 17.135 3.98982C17.714 4.57982 18.228 5.25082 18.66 5.99982C19.093 6.74882 19.417 7.52982 19.638 8.32582C19.1447 8.57672 18.7304 8.9592 18.441 9.43093C18.1515 9.90266 17.9982 10.4453 17.998 10.9987C17.9978 11.5522 18.1507 12.0949 18.4398 12.5668C18.7289 13.0388 19.1429 13.4216 19.636 13.6728C19.184 15.3073 18.3233 16.7999 17.135 18.0098C16.6709 17.7081 16.1324 17.5407 15.579 17.526C15.0257 17.5114 14.479 17.6502 13.9997 17.927C13.5203 18.2038 13.1268 18.6078 12.8629 19.0944C12.5989 19.5809 12.4747 20.131 12.504 20.6838C10.8619 21.1082 9.13877 21.1075 7.497 20.6818C7.52605 20.1291 7.4016 19.579 7.13742 19.0926C6.87324 18.6062 6.47964 18.2023 6.00017 17.9258C5.5207 17.6492 4.97405 17.5106 4.42073 17.5255C3.8674 17.5403 3.32896 17.7079 2.865 18.0098C2.27399 17.4068 1.76159 16.7314 1.34 15.9998ZM7 16.1958C8.06563 16.8105 8.86685 17.7968 9.25 18.9658C9.749 19.0128 10.25 19.0138 10.749 18.9668C11.1324 17.7977 11.934 16.8113 13 16.1968C14.0652 15.5805 15.3205 15.3793 16.525 15.6318C16.815 15.2238 17.065 14.7888 17.273 14.3338C16.4524 13.4173 15.9991 12.23 16 10.9998C16 9.73982 16.47 8.56282 17.273 7.66582C17.0635 7.21097 16.8125 6.77646 16.523 6.36782C15.3193 6.62013 14.0648 6.4193 13 5.80382C11.9344 5.18919 11.1332 4.20281 10.75 3.03382C10.251 2.98682 9.75 2.98582 9.251 3.03282C8.8676 4.20197 8.066 5.18838 7 5.80282C5.93478 6.41914 4.67948 6.62034 3.475 6.36782C3.18556 6.77611 2.93513 7.21069 2.727 7.66582C3.54757 8.58238 4.00088 9.76961 4 10.9998C4 12.2598 3.53 13.4368 2.727 14.3338C2.93647 14.7887 3.18754 15.2232 3.477 15.6318C4.68072 15.3795 5.93521 15.5803 7 16.1958ZM10 13.9998C9.20435 13.9998 8.44129 13.6838 7.87868 13.1211C7.31607 12.5585 7 11.7955 7 10.9998C7 10.2042 7.31607 9.44111 7.87868 8.8785C8.44129 8.31589 9.20435 7.99982 10 7.99982C10.7956 7.99982 11.5587 8.31589 12.1213 8.8785C12.6839 9.44111 13 10.2042 13 10.9998C13 11.7955 12.6839 12.5585 12.1213 13.1211C11.5587 13.6838 10.7956 13.9998 10 13.9998ZM10 11.9998C10.2652 11.9998 10.5196 11.8945 10.7071 11.7069C10.8946 11.5194 11 11.265 11 10.9998C11 10.7346 10.8946 10.4803 10.7071 10.2927C10.5196 10.1052 10.2652 9.99982 10 9.99982C9.73478 9.99982 9.48043 10.1052 9.29289 10.2927C9.10536 10.4803 9 10.7346 9 10.9998C9 11.265 9.10536 11.5194 9.29289 11.7069C9.48043 11.8945 9.73478 11.9998 10 11.9998Z" fill="#98A7B5"/>
</svg>
