<svg width="23" height="23" viewBox="0 0 23 23" fill="none" xmlns="http://www.w3.org/2000/svg">
<path d="M8.125 0.125V2.375H14.875V0.125H17.125V2.375H21.625C22.2463 2.375 22.75 2.87869 22.75 3.5V21.5C22.75 22.1213 22.2463 22.625 21.625 22.625H1.375C0.753685 22.625 0.25 22.1213 0.25 21.5V3.5C0.25 2.87869 0.753685 2.375 1.375 2.375H5.875V0.125H8.125ZM20.5 11.375H2.5V20.375H20.5V11.375ZM7 13.625V15.875H4.75V13.625H7ZM12.625 13.625V15.875H10.375V13.625H12.625ZM18.25 13.625V15.875H16V13.625H18.25ZM5.875 4.625H2.5V9.125H20.5V4.625H17.125V6.875H14.875V4.625H8.125V6.875H5.875V4.625Z" fill="#545764"/>
</svg>
