<svg width="14" height="12" viewBox="0 0 14 12" fill="none" xmlns="http://www.w3.org/2000/svg">
<path d="M5.56263 1.68163L4.31557 2.92869H1.9287V10.411H11.9052V2.92869H9.5183L8.27124 1.68163H5.56263ZM5.04635 0.43457H8.78752L10.0346 1.68163H12.5287C12.6941 1.68163 12.8527 1.74732 12.9696 1.86426C13.0865 1.98119 13.1522 2.13979 13.1522 2.30516V11.0346C13.1522 11.1999 13.0865 11.3585 12.9696 11.4755C12.8527 11.5924 12.6941 11.6581 12.5287 11.6581H1.30517C1.1398 11.6581 0.981203 11.5924 0.864268 11.4755C0.747334 11.3585 0.681641 11.1999 0.681641 11.0346V2.30516C0.681641 2.13979 0.747334 1.98119 0.864268 1.86426C0.981203 1.74732 1.1398 1.68163 1.30517 1.68163H3.79929L5.04635 0.43457ZM6.91693 9.78751C6.0074 9.78751 5.13511 9.4262 4.49197 8.78306C3.84883 8.13992 3.48752 7.26764 3.48752 6.3581C3.48752 5.44856 3.84883 4.57628 4.49197 3.93314C5.13511 3.29 6.0074 2.92869 6.91693 2.92869C7.82647 2.92869 8.69876 3.29 9.3419 3.93314C9.98503 4.57628 10.3463 5.44856 10.3463 6.3581C10.3463 7.26764 9.98503 8.13992 9.3419 8.78306C8.69876 9.4262 7.82647 9.78751 6.91693 9.78751ZM6.91693 8.54045C7.49573 8.54045 8.05082 8.31053 8.46009 7.90126C8.86936 7.49199 9.09929 6.9369 9.09929 6.3581C9.09929 5.7793 8.86936 5.22421 8.46009 4.81494C8.05082 4.40567 7.49573 4.17575 6.91693 4.17575C6.33814 4.17575 5.78305 4.40567 5.37378 4.81494C4.96451 5.22421 4.73458 5.7793 4.73458 6.3581C4.73458 6.9369 4.96451 7.49199 5.37378 7.90126C5.78305 8.31053 6.33814 8.54045 6.91693 8.54045Z" fill="#98A7B5"/>
</svg>
