<svg width="20" height="20" viewBox="0 0 20 20" fill="none" xmlns="http://www.w3.org/2000/svg">
<path d="M10.0002 19.1663C4.93755 19.1663 0.833496 15.0622 0.833496 9.99967C0.833496 4.93706 4.93755 0.833008 10.0002 0.833008C15.0627 0.833008 19.1668 4.93706 19.1668 9.99967C19.1668 15.0622 15.0627 19.1663 10.0002 19.1663ZM10.0002 17.333C14.0503 17.333 17.3335 14.0498 17.3335 9.99967C17.3335 5.94958 14.0503 2.66634 10.0002 2.66634C5.95007 2.66634 2.66683 5.94958 2.66683 9.99967C2.66683 14.0498 5.95007 17.333 10.0002 17.333ZM10.9168 9.99967H14.5835V11.833H9.0835V5.41634H10.9168V9.99967Z" fill="#4D556F"/>
</svg>
