<svg width="304" height="300" viewBox="0 0 304 300" fill="none" xmlns="http://www.w3.org/2000/svg">
<g opacity="0.2">
<path d="M143.496 232.153C143.496 232.153 56.5894 210.475 56.5894 59.7097C85.5583 57.3612 113.924 54.0767 143.496 27.0254C173.068 54.0767 201.434 57.3612 230.403 59.7097C230.403 210.475 143.496 232.153 143.496 232.153Z" fill="url(#paint0_linear_15_2078)" fill-opacity="0.2" stroke="url(#paint1_linear_15_2078)" stroke-width="5.52" stroke-linecap="round" stroke-linejoin="round"/>
<path d="M157.139 169.978L149.385 112.357C153.228 110.268 155.834 106.199 155.834 101.524C155.834 94.5476 150.032 88.9233 142.989 89.205C136.627 89.4606 131.449 94.6126 131.171 100.965C130.955 105.874 133.613 110.186 137.607 112.357L129.853 169.978H157.139Z" stroke="url(#paint2_linear_15_2078)" stroke-width="5.52" stroke-linecap="round" stroke-linejoin="round"/>
<path d="M190.185 53.5264C194.109 51.9665 197.969 50.5192 201.755 49.1933C242.025 35.0718 273.878 34.2442 283.852 49.9213C299.811 75.0011 253.708 132.835 180.883 179.094C108.057 225.354 36.0814 242.526 20.1268 217.442C9.08134 200.079 27.7724 167.022 64.4822 132.978" stroke="url(#paint3_linear_15_2078)" stroke-width="5.52" stroke-linecap="round" stroke-linejoin="round"/>
<path style="mix-blend-mode:color-dodge" d="M222.18 214.565C222.18 216.277 173.003 217.663 112.341 217.663C51.6802 217.663 2.50244 216.277 2.50244 214.565C2.50244 212.853 51.6802 211.467 112.341 211.467C173.003 211.467 222.18 212.853 222.18 214.565Z" fill="url(#paint4_radial_15_2078)"/>
<path style="mix-blend-mode:color-dodge" opacity="0.5" d="M112.342 239.701C130.985 239.701 146.098 228.447 146.098 214.565C146.098 200.683 130.985 189.429 112.342 189.429C93.6983 189.429 78.585 200.683 78.585 214.565C78.585 228.447 93.6983 239.701 112.342 239.701Z" fill="url(#paint5_radial_15_2078)"/>
<path style="mix-blend-mode:color-dodge" opacity="0.8" d="M112.341 225.696C126.259 225.696 137.542 220.713 137.542 214.565C137.542 208.417 126.259 203.433 112.341 203.433C98.4237 203.433 87.1411 208.417 87.1411 214.565C87.1411 220.713 98.4237 225.696 112.341 225.696Z" fill="url(#paint6_radial_15_2078)"/>
<path style="mix-blend-mode:color-dodge" d="M157.508 169.436C158.657 170.584 139.363 191.717 114.423 216.64C89.4788 241.564 68.3289 260.838 67.1796 259.689C66.0304 258.541 85.3242 237.409 110.264 212.485C135.209 187.561 156.359 168.288 157.508 169.436V169.436Z" fill="url(#paint7_radial_15_2078)"/>
<path style="mix-blend-mode:color-dodge" opacity="0.5" d="M129.202 231.41C136.868 223.75 135.535 209.998 126.224 200.694C116.913 191.39 103.149 190.058 95.4826 197.719C87.8158 205.379 89.1488 219.131 98.4601 228.435C107.771 237.738 121.535 239.07 129.202 231.41Z" fill="url(#paint8_radial_15_2078)"/>
<path style="mix-blend-mode:color-dodge" opacity="0.8" d="M119.809 222.025C125.532 216.308 126.828 208.332 122.704 204.212C118.58 200.091 110.598 201.386 104.875 207.104C99.1527 212.822 97.8567 220.797 101.981 224.918C106.104 229.038 114.087 227.743 119.809 222.025Z" fill="url(#paint9_radial_15_2078)"/>
<path style="mix-blend-mode:color-dodge" d="M248.252 72.5053C247.727 74.0826 218.52 65.8324 183.016 54.0725C147.507 42.3168 119.15 31.5058 119.67 29.9286C120.195 28.3514 149.402 36.6015 184.907 48.3615C220.415 60.1171 248.773 70.9281 248.252 72.5053Z" fill="url(#paint10_radial_15_2078)"/>
<path style="mix-blend-mode:color-dodge" opacity="0.5" d="M212.134 60.5415C214 54.9146 202.895 46.1763 187.33 41.024C171.765 35.8717 157.635 36.2564 155.769 41.8833C153.904 47.5103 165.009 56.2485 180.574 61.4009C196.138 66.5532 210.268 66.1684 212.134 60.5415Z" fill="url(#paint11_radial_15_2078)"/>
<path style="mix-blend-mode:color-dodge" opacity="0.8" d="M204.998 58.1847C204.17 60.6763 194.083 59.58 182.465 55.7322C170.847 51.8845 162.1 46.7454 162.924 44.2539C163.752 41.7624 173.839 42.8587 185.457 46.7065C197.075 50.5542 205.822 55.6932 204.998 58.1847Z" fill="url(#paint12_radial_15_2078)"/>
<path style="mix-blend-mode:color-dodge" d="M129.124 226.68C126.817 223.916 163.479 189.593 211.013 150.019C258.548 110.445 298.948 80.6079 301.255 83.3724C303.562 86.1369 266.9 120.459 219.366 160.033C171.836 199.607 131.431 229.445 129.124 226.68V226.68Z" fill="url(#paint13_radial_15_2078)"/>
<path style="mix-blend-mode:color-dodge" opacity="0.6" d="M230.193 173.033C251.425 155.358 261.921 132.973 253.634 123.035C245.348 113.098 221.418 119.371 200.185 137.047C178.952 154.723 168.457 177.108 176.743 187.045C185.03 196.983 208.96 190.709 230.193 173.033Z" fill="url(#paint14_radial_15_2078)"/>
<path style="mix-blend-mode:color-dodge" opacity="0.7" d="M227.711 170.057C264.325 139.577 288.4 108.144 281.485 99.8504C274.569 91.5566 239.281 109.542 202.666 140.023C166.052 170.504 141.977 201.936 148.893 210.23C155.809 218.524 191.097 200.538 227.711 170.057Z" fill="url(#paint15_radial_15_2078)"/>
<path style="mix-blend-mode:color-dodge" d="M82.4054 66.6338C96.8884 66.6338 108.629 54.7359 108.629 40.0591C108.629 25.3823 96.8884 13.4844 82.4054 13.4844C67.9224 13.4844 56.1816 25.3823 56.1816 40.0591C56.1816 54.7359 67.9224 66.6338 82.4054 66.6338Z" fill="url(#paint16_radial_15_2078)"/>
<path style="mix-blend-mode:color-dodge" d="M29.9362 16.2143C34.3551 16.2143 37.9373 12.5846 37.9373 8.10717C37.9373 3.6297 34.3551 0 29.9362 0C25.5173 0 21.9351 3.6297 21.9351 8.10717C21.9351 12.5846 25.5173 16.2143 29.9362 16.2143Z" fill="url(#paint17_radial_15_2078)"/>
<path style="mix-blend-mode:color-dodge" d="M63.8138 65.2258C70.2063 65.2258 75.3884 59.9743 75.3884 53.4962C75.3884 47.0181 70.2063 41.7666 63.8138 41.7666C57.4214 41.7666 52.2393 47.0181 52.2393 53.4962C52.2393 59.9743 57.4214 65.2258 63.8138 65.2258Z" fill="url(#paint18_radial_15_2078)"/>
<path style="mix-blend-mode:color-dodge" d="M72.3746 19.2563C76.4918 19.2563 79.8294 15.873 79.8294 11.6994C79.8294 7.5259 76.4918 4.14258 72.3746 4.14258C68.2575 4.14258 64.9199 7.5259 64.9199 11.6994C64.9199 15.873 68.2575 19.2563 72.3746 19.2563Z" fill="url(#paint19_radial_15_2078)"/>
<path style="mix-blend-mode:color-dodge" d="M60.9346 26.6744C63.7847 26.6744 66.0952 24.3328 66.0952 21.4444C66.0952 18.5559 63.7847 16.2144 60.9346 16.2144C58.0844 16.2144 55.7739 18.5559 55.7739 21.4444C55.7739 24.3328 58.0844 26.6744 60.9346 26.6744Z" fill="url(#paint20_radial_15_2078)"/>
<path style="mix-blend-mode:color-dodge" d="M32.0523 59.2114C39.2854 59.2114 45.149 53.2692 45.149 45.9392C45.149 38.6092 39.2854 32.667 32.0523 32.667C24.8192 32.667 18.9556 38.6092 18.9556 45.9392C18.9556 53.2692 24.8192 59.2114 32.0523 59.2114Z" fill="url(#paint21_radial_15_2078)"/>
<path style="mix-blend-mode:color-dodge" d="M58.2152 101.259C69.9008 101.259 79.3738 91.6604 79.3738 79.8194C79.3738 67.9784 69.9008 58.3794 58.2152 58.3794C46.5297 58.3794 37.0566 67.9784 37.0566 79.8194C37.0566 91.6604 46.5297 101.259 58.2152 101.259Z" fill="url(#paint22_radial_15_2078)"/>
<path style="mix-blend-mode:color-dodge" d="M154.992 201.213C225.183 164.984 280.744 133.021 279.091 129.824C277.438 126.626 219.196 153.403 149.005 189.633C78.8131 225.863 23.2519 257.825 24.9051 261.022C26.5584 264.22 84.8001 237.443 154.992 201.213Z" fill="url(#paint23_radial_15_2078)"/>
<path style="mix-blend-mode:color-dodge" opacity="0.6" d="M162.756 216.231C194.111 200.047 214.713 177.612 208.771 166.12C202.83 154.628 172.595 158.431 141.24 174.615C109.885 190.799 89.2837 213.235 95.2251 224.727C101.167 236.219 131.401 232.415 162.756 216.231Z" fill="url(#paint24_radial_15_2078)"/>
<path style="mix-blend-mode:color-dodge" opacity="0.7" d="M160.976 212.789C215.045 184.882 254.856 154.483 249.897 144.892C244.938 135.301 197.088 150.149 143.019 178.057C88.9511 205.964 49.1399 236.363 54.0986 245.954C59.0573 255.545 106.908 240.697 160.976 212.789Z" fill="url(#paint25_radial_15_2078)"/>
<path style="mix-blend-mode:color-dodge" d="M3.92487 232.179C3.79044 229.895 27.989 226.615 57.9727 224.847C87.9564 223.08 112.372 223.5 112.506 225.779C112.641 228.063 88.4421 231.343 58.4584 233.111C28.4747 234.878 4.05931 234.458 3.92487 232.179V232.179Z" fill="url(#paint26_radial_15_2078)"/>
<path style="mix-blend-mode:color-dodge" opacity="0.6" d="M59.1112 243.816C72.5051 243.026 82.9701 235.738 82.4854 227.54C82.0008 219.341 70.7501 213.335 57.3562 214.126C43.9624 214.916 33.4974 222.203 33.982 230.402C34.4666 238.601 45.7174 244.606 59.1112 243.816Z" fill="url(#paint27_radial_15_2078)"/>
<path style="mix-blend-mode:color-dodge" opacity="0.7" d="M58.966 241.359C82.0621 239.996 100.457 233.345 100.053 226.503C99.6485 219.661 80.5976 215.22 57.5014 216.582C34.4053 217.945 16.01 224.597 16.4144 231.439C16.8188 238.281 35.8698 242.722 58.966 241.359Z" fill="url(#paint28_radial_15_2078)"/>
<path style="mix-blend-mode:color-dodge" d="M148.219 94.8073C149.776 94.647 152.724 111.056 154.806 131.452C156.888 151.848 157.317 168.513 155.76 168.669C154.203 168.829 151.254 152.42 149.173 132.024C147.091 111.628 146.662 94.9633 148.219 94.8073Z" fill="url(#paint29_radial_15_2078)"/>
<path style="mix-blend-mode:color-dodge" opacity="0.6" d="M153.686 148.22C159.275 147.65 163.052 139.802 162.121 130.691C161.19 121.58 155.904 114.656 150.314 115.227C144.724 115.797 140.948 123.645 141.879 132.756C142.81 141.867 148.096 148.791 153.686 148.22Z" fill="url(#paint30_radial_15_2078)"/>
<path style="mix-blend-mode:color-dodge" opacity="0.7" d="M154.907 160.169C159.572 159.693 162.052 146.572 160.447 130.862C158.842 115.151 153.758 102.801 149.093 103.277C144.427 103.753 141.947 116.875 143.552 132.585C145.158 148.295 150.241 160.645 154.907 160.169Z" fill="url(#paint31_radial_15_2078)"/>
<path style="mix-blend-mode:color-dodge" d="M145.235 299.996C205.598 299.996 254.532 286.464 254.532 269.772C254.532 253.081 205.598 239.549 145.235 239.549C84.8719 239.549 35.938 253.081 35.938 269.772C35.938 286.464 84.8719 299.996 145.235 299.996Z" fill="url(#paint32_radial_15_2078)"/>
<path style="mix-blend-mode:color-dodge" d="M145.235 286.71C179.063 286.71 206.486 279.127 206.486 269.772C206.486 260.418 179.063 252.834 145.235 252.834C111.407 252.834 83.9839 260.418 83.9839 269.772C83.9839 279.127 111.407 286.71 145.235 286.71Z" fill="url(#paint33_radial_15_2078)"/>
</g>
<defs>
<linearGradient id="paint0_linear_15_2078" x1="56.5894" y1="129.589" x2="230.398" y2="129.589" gradientUnits="userSpaceOnUse">
<stop stop-color="#57C3F9" stop-opacity="0.2"/>
<stop offset="0.07" stop-color="#57C3F9" stop-opacity="0.28"/>
<stop offset="0.2" stop-color="#57C3F9" stop-opacity="0.49"/>
<stop offset="0.4" stop-color="#57C3F9" stop-opacity="0.83"/>
<stop offset="0.49" stop-color="#57C3F9"/>
<stop offset="0.76" stop-color="#57C3F9" stop-opacity="0.99"/>
<stop offset="0.82" stop-color="#57C3F9" stop-opacity="0.81"/>
<stop offset="0.87" stop-color="#57C3F9" stop-opacity="0.68"/>
<stop offset="0.92" stop-color="#57C3F9" stop-opacity="0.58"/>
<stop offset="0.96" stop-color="#57C3F9" stop-opacity="0.52"/>
<stop offset="1" stop-color="#57C3F9" stop-opacity="0.5"/>
</linearGradient>
<linearGradient id="paint1_linear_15_2078" x1="74.2699" y1="40.3496" x2="212.603" y2="178.797" gradientUnits="userSpaceOnUse">
<stop stop-color="#57C3F9" stop-opacity="0.5"/>
<stop offset="0.03" stop-color="#57C3F9" stop-opacity="0.58"/>
<stop offset="0.08" stop-color="#57C3F9" stop-opacity="0.79"/>
<stop offset="0.14" stop-color="#57C3F9"/>
<stop offset="0.42" stop-color="#57C3F9"/>
<stop offset="0.5" stop-color="#57C3F9" stop-opacity="0.73"/>
<stop offset="0.6" stop-color="#57C3F9" stop-opacity="0.42"/>
<stop offset="0.68" stop-color="#57C3F9" stop-opacity="0.19"/>
<stop offset="0.74" stop-color="#57C3F9" stop-opacity="0.05"/>
<stop offset="0.77" stop-color="#57C3F9" stop-opacity="0"/>
<stop offset="0.83" stop-color="#57C3F9" stop-opacity="0.29"/>
<stop offset="0.91" stop-color="#57C3F9" stop-opacity="0.67"/>
<stop offset="0.97" stop-color="#57C3F9" stop-opacity="0.91"/>
<stop offset="0.99" stop-color="#57C3F9"/>
</linearGradient>
<linearGradient id="paint2_linear_15_2078" x1="117.758" y1="108.136" x2="169.2" y2="159.621" gradientUnits="userSpaceOnUse">
<stop stop-color="#57C3F9" stop-opacity="0.5"/>
<stop offset="0.03" stop-color="#57C3F9" stop-opacity="0.58"/>
<stop offset="0.08" stop-color="#57C3F9" stop-opacity="0.79"/>
<stop offset="0.14" stop-color="#57C3F9"/>
<stop offset="0.42" stop-color="#57C3F9"/>
<stop offset="0.99" stop-color="#57C3F9"/>
</linearGradient>
<linearGradient id="paint3_linear_15_2078" x1="127.955" y1="89.6586" x2="180.346" y2="185.831" gradientUnits="userSpaceOnUse">
<stop stop-color="#57C3F9" stop-opacity="0"/>
<stop offset="0.09" stop-color="#57C3F9" stop-opacity="0.05"/>
<stop offset="0.26" stop-color="#57C3F9" stop-opacity="0.19"/>
<stop offset="0.5" stop-color="#57C3F9" stop-opacity="0.42"/>
<stop offset="0.78" stop-color="#57C3F9" stop-opacity="0.73"/>
<stop offset="1" stop-color="#57C3F9"/>
</linearGradient>
<radialGradient id="paint4_radial_15_2078" cx="0" cy="0" r="1" gradientUnits="userSpaceOnUse" gradientTransform="translate(112.313 191.084) scale(109.808 3.0383)">
<stop stop-color="white"/>
<stop offset="0.08" stop-color="#CDCDCD" stop-opacity="0.8"/>
<stop offset="0.17" stop-color="#9D9D9D" stop-opacity="0.62"/>
<stop offset="0.26" stop-color="#737373" stop-opacity="0.45"/>
<stop offset="0.36" stop-color="#4F4F4F" stop-opacity="0.31"/>
<stop offset="0.46" stop-color="#323232" stop-opacity="0.2"/>
<stop offset="0.57" stop-color="#1C1C1C" stop-opacity="0.11"/>
<stop offset="0.68" stop-color="#0C0C0C" stop-opacity="0.05"/>
<stop offset="0.82" stop-color="#020202" stop-opacity="0.01"/>
<stop offset="1" stop-opacity="0"/>
</radialGradient>
<radialGradient id="paint5_radial_15_2078" cx="0" cy="0" r="1" gradientUnits="userSpaceOnUse" gradientTransform="translate(112.27 219.802) scale(33.7448 25.0715)">
<stop stop-color="white"/>
<stop offset="0.15" stop-color="#C4C4C4" stop-opacity="0.77"/>
<stop offset="0.32" stop-color="#898989" stop-opacity="0.54"/>
<stop offset="0.48" stop-color="#585858" stop-opacity="0.35"/>
<stop offset="0.64" stop-color="#323232" stop-opacity="0.2"/>
<stop offset="0.78" stop-color="#161616" stop-opacity="0.09"/>
<stop offset="0.9" stop-color="#050505" stop-opacity="0.02"/>
<stop offset="1" stop-opacity="0"/>
</radialGradient>
<radialGradient id="paint6_radial_15_2078" cx="0" cy="0" r="1" gradientUnits="userSpaceOnUse" gradientTransform="translate(112.269 214.561) scale(25.1936 11.1341)">
<stop stop-color="#F8F8F8" stop-opacity="0.98"/>
<stop offset="0.09" stop-color="#C5C5C5" stop-opacity="0.77"/>
<stop offset="0.17" stop-color="#969696" stop-opacity="0.59"/>
<stop offset="0.26" stop-color="#6D6D6D" stop-opacity="0.43"/>
<stop offset="0.35" stop-color="#4B4B4B" stop-opacity="0.3"/>
<stop offset="0.45" stop-color="#303030" stop-opacity="0.19"/>
<stop offset="0.55" stop-color="#1A1A1A" stop-opacity="0.1"/>
<stop offset="0.66" stop-color="#0B0B0B" stop-opacity="0.05"/>
<stop offset="0.8" stop-color="#020202" stop-opacity="0.01"/>
<stop offset="1" stop-opacity="0"/>
</radialGradient>
<radialGradient id="paint7_radial_15_2078" cx="0" cy="0" r="1" gradientUnits="userSpaceOnUse" gradientTransform="translate(110.576 209.994) rotate(-44.9763) scale(63.7058 2.88117)">
<stop stop-color="white"/>
<stop offset="0.08" stop-color="#CDCDCD" stop-opacity="0.8"/>
<stop offset="0.17" stop-color="#9D9D9D" stop-opacity="0.62"/>
<stop offset="0.26" stop-color="#737373" stop-opacity="0.45"/>
<stop offset="0.36" stop-color="#4F4F4F" stop-opacity="0.31"/>
<stop offset="0.46" stop-color="#323232" stop-opacity="0.2"/>
<stop offset="0.57" stop-color="#1C1C1C" stop-opacity="0.11"/>
<stop offset="0.68" stop-color="#0C0C0C" stop-opacity="0.05"/>
<stop offset="0.82" stop-color="#020202" stop-opacity="0.01"/>
<stop offset="1" stop-opacity="0"/>
</radialGradient>
<radialGradient id="paint8_radial_15_2078" cx="0" cy="0" r="1" gradientUnits="userSpaceOnUse" gradientTransform="translate(115.903 221.577) rotate(-44.9763) scale(19.6754 23.7745)">
<stop stop-color="white"/>
<stop offset="0.15" stop-color="#C4C4C4" stop-opacity="0.77"/>
<stop offset="0.32" stop-color="#898989" stop-opacity="0.54"/>
<stop offset="0.48" stop-color="#585858" stop-opacity="0.35"/>
<stop offset="0.64" stop-color="#323232" stop-opacity="0.2"/>
<stop offset="0.78" stop-color="#161616" stop-opacity="0.09"/>
<stop offset="0.9" stop-color="#050505" stop-opacity="0.02"/>
<stop offset="1" stop-opacity="0"/>
</radialGradient>
<radialGradient id="paint9_radial_15_2078" cx="0" cy="0" r="1" gradientUnits="userSpaceOnUse" gradientTransform="translate(110.603 216.288) rotate(-44.9763) scale(14.6858 10.5554)">
<stop stop-color="#F8F8F8" stop-opacity="0.98"/>
<stop offset="0.09" stop-color="#C5C5C5" stop-opacity="0.77"/>
<stop offset="0.17" stop-color="#969696" stop-opacity="0.59"/>
<stop offset="0.26" stop-color="#6D6D6D" stop-opacity="0.43"/>
<stop offset="0.35" stop-color="#4B4B4B" stop-opacity="0.3"/>
<stop offset="0.45" stop-color="#303030" stop-opacity="0.19"/>
<stop offset="0.55" stop-color="#1A1A1A" stop-opacity="0.1"/>
<stop offset="0.66" stop-color="#0B0B0B" stop-opacity="0.05"/>
<stop offset="0.8" stop-color="#020202" stop-opacity="0.01"/>
<stop offset="1" stop-opacity="0"/>
</radialGradient>
<radialGradient id="paint10_radial_15_2078" cx="0" cy="0" r="1" gradientUnits="userSpaceOnUse" gradientTransform="translate(198.382 6.41691) rotate(18.3158) scale(67.684 2.90296)">
<stop stop-color="white"/>
<stop offset="0.08" stop-color="#CDCDCD" stop-opacity="0.8"/>
<stop offset="0.17" stop-color="#9D9D9D" stop-opacity="0.62"/>
<stop offset="0.26" stop-color="#737373" stop-opacity="0.45"/>
<stop offset="0.36" stop-color="#4F4F4F" stop-opacity="0.31"/>
<stop offset="0.46" stop-color="#323232" stop-opacity="0.2"/>
<stop offset="0.57" stop-color="#1C1C1C" stop-opacity="0.11"/>
<stop offset="0.68" stop-color="#0C0C0C" stop-opacity="0.05"/>
<stop offset="0.82" stop-color="#020202" stop-opacity="0.01"/>
<stop offset="1" stop-opacity="0"/>
</radialGradient>
<radialGradient id="paint11_radial_15_2078" cx="0" cy="0" r="1" gradientUnits="userSpaceOnUse" gradientTransform="translate(186.547 51.3616) rotate(18.3158) scale(29.7505 10.7774)">
<stop stop-color="white"/>
<stop offset="0.15" stop-color="#C4C4C4" stop-opacity="0.77"/>
<stop offset="0.32" stop-color="#898989" stop-opacity="0.54"/>
<stop offset="0.48" stop-color="#585858" stop-opacity="0.35"/>
<stop offset="0.64" stop-color="#323232" stop-opacity="0.2"/>
<stop offset="0.78" stop-color="#161616" stop-opacity="0.09"/>
<stop offset="0.9" stop-color="#050505" stop-opacity="0.02"/>
<stop offset="1" stop-opacity="0"/>
</radialGradient>
<radialGradient id="paint12_radial_15_2078" cx="0" cy="0" r="1" gradientUnits="userSpaceOnUse" gradientTransform="translate(187.658 47.8834) rotate(18.3258) scale(22.2088 4.71624)">
<stop stop-color="#F8F8F8" stop-opacity="0.98"/>
<stop offset="0.09" stop-color="#C5C5C5" stop-opacity="0.77"/>
<stop offset="0.17" stop-color="#969696" stop-opacity="0.59"/>
<stop offset="0.26" stop-color="#6D6D6D" stop-opacity="0.43"/>
<stop offset="0.35" stop-color="#4B4B4B" stop-opacity="0.3"/>
<stop offset="0.45" stop-color="#303030" stop-opacity="0.19"/>
<stop offset="0.55" stop-color="#1A1A1A" stop-opacity="0.1"/>
<stop offset="0.66" stop-color="#0B0B0B" stop-opacity="0.05"/>
<stop offset="0.8" stop-color="#020202" stop-opacity="0.01"/>
<stop offset="1" stop-opacity="0"/>
</radialGradient>
<radialGradient id="paint13_radial_15_2078" cx="0" cy="0" r="1" gradientUnits="userSpaceOnUse" gradientTransform="translate(195.131 129.487) rotate(140.223) scale(111.898 6.42379)">
<stop stop-color="white"/>
<stop offset="0.16" stop-color="#C0C0C0" stop-opacity="0.75"/>
<stop offset="0.32" stop-color="#868686" stop-opacity="0.53"/>
<stop offset="0.48" stop-color="#565656" stop-opacity="0.34"/>
<stop offset="0.63" stop-color="#303030" stop-opacity="0.19"/>
<stop offset="0.77" stop-color="#161616" stop-opacity="0.09"/>
<stop offset="0.9" stop-color="#050505" stop-opacity="0.02"/>
<stop offset="0.99" stop-opacity="0"/>
</radialGradient>
<radialGradient id="paint14_radial_15_2078" cx="0" cy="0" r="1" gradientUnits="userSpaceOnUse" gradientTransform="translate(233.872 169.071) rotate(140.223) scale(49.9102 23.5438)">
<stop stop-color="#F8F8F8" stop-opacity="0.98"/>
<stop offset="0.09" stop-color="#C5C5C5" stop-opacity="0.77"/>
<stop offset="0.17" stop-color="#969696" stop-opacity="0.59"/>
<stop offset="0.26" stop-color="#6D6D6D" stop-opacity="0.43"/>
<stop offset="0.35" stop-color="#4B4B4B" stop-opacity="0.3"/>
<stop offset="0.44" stop-color="#303030" stop-opacity="0.19"/>
<stop offset="0.55" stop-color="#1A1A1A" stop-opacity="0.1"/>
<stop offset="0.66" stop-color="#0B0B0B" stop-opacity="0.05"/>
<stop offset="0.8" stop-color="#020202" stop-opacity="0.01"/>
<stop offset="1" stop-opacity="0"/>
</radialGradient>
<radialGradient id="paint15_radial_15_2078" cx="0" cy="0" r="1" gradientUnits="userSpaceOnUse" gradientTransform="translate(201.16 134.967) rotate(140.223) scale(86.1825 19.4273)">
<stop stop-color="#F8F8F8" stop-opacity="0.98"/>
<stop offset="0.09" stop-color="#C5C5C5" stop-opacity="0.77"/>
<stop offset="0.17" stop-color="#969696" stop-opacity="0.59"/>
<stop offset="0.26" stop-color="#6D6D6D" stop-opacity="0.43"/>
<stop offset="0.35" stop-color="#4B4B4B" stop-opacity="0.3"/>
<stop offset="0.44" stop-color="#303030" stop-opacity="0.19"/>
<stop offset="0.55" stop-color="#1A1A1A" stop-opacity="0.1"/>
<stop offset="0.66" stop-color="#0B0B0B" stop-opacity="0.05"/>
<stop offset="0.8" stop-color="#020202" stop-opacity="0.01"/>
<stop offset="1" stop-opacity="0"/>
</radialGradient>
<radialGradient id="paint16_radial_15_2078" cx="0" cy="0" r="1" gradientUnits="userSpaceOnUse" gradientTransform="translate(82.6602 45.7141) scale(26.3023 26.509)">
<stop stop-color="white"/>
<stop offset="0.15" stop-color="#C4C4C4" stop-opacity="0.77"/>
<stop offset="0.32" stop-color="#898989" stop-opacity="0.54"/>
<stop offset="0.48" stop-color="#585858" stop-opacity="0.35"/>
<stop offset="0.64" stop-color="#323232" stop-opacity="0.2"/>
<stop offset="0.78" stop-color="#161616" stop-opacity="0.09"/>
<stop offset="0.9" stop-color="#050505" stop-opacity="0.02"/>
<stop offset="1" stop-opacity="0"/>
</radialGradient>
<radialGradient id="paint17_radial_15_2078" cx="0" cy="0" r="1" gradientUnits="userSpaceOnUse" gradientTransform="translate(30.0258 13.8421) scale(8.02434 8.08741)">
<stop stop-color="white"/>
<stop offset="0.15" stop-color="#C4C4C4" stop-opacity="0.77"/>
<stop offset="0.32" stop-color="#898989" stop-opacity="0.54"/>
<stop offset="0.48" stop-color="#585858" stop-opacity="0.35"/>
<stop offset="0.64" stop-color="#323232" stop-opacity="0.2"/>
<stop offset="0.78" stop-color="#161616" stop-opacity="0.09"/>
<stop offset="0.9" stop-color="#050505" stop-opacity="0.02"/>
<stop offset="1" stop-opacity="0"/>
</radialGradient>
<radialGradient id="paint18_radial_15_2078" cx="0" cy="0" r="1" gradientUnits="userSpaceOnUse" gradientTransform="translate(64.0079 59.1197) scale(11.6101 11.7014)">
<stop stop-color="white"/>
<stop offset="0.15" stop-color="#C4C4C4" stop-opacity="0.77"/>
<stop offset="0.32" stop-color="#898989" stop-opacity="0.54"/>
<stop offset="0.48" stop-color="#585858" stop-opacity="0.35"/>
<stop offset="0.64" stop-color="#323232" stop-opacity="0.2"/>
<stop offset="0.78" stop-color="#161616" stop-opacity="0.09"/>
<stop offset="0.9" stop-color="#050505" stop-opacity="0.02"/>
<stop offset="1" stop-opacity="0"/>
</radialGradient>
<radialGradient id="paint19_radial_15_2078" cx="0" cy="0" r="1" gradientUnits="userSpaceOnUse" gradientTransform="translate(72.596 17.426) scale(7.48074 7.53954)">
<stop stop-color="white"/>
<stop offset="0.15" stop-color="#C4C4C4" stop-opacity="0.77"/>
<stop offset="0.32" stop-color="#898989" stop-opacity="0.54"/>
<stop offset="0.48" stop-color="#585858" stop-opacity="0.35"/>
<stop offset="0.64" stop-color="#323232" stop-opacity="0.2"/>
<stop offset="0.78" stop-color="#161616" stop-opacity="0.09"/>
<stop offset="0.9" stop-color="#050505" stop-opacity="0.02"/>
<stop offset="1" stop-opacity="0"/>
</radialGradient>
<radialGradient id="paint20_radial_15_2078" cx="0" cy="0" r="1" gradientUnits="userSpaceOnUse" gradientTransform="translate(61.1206 27.1469) scale(5.17667 5.21736)">
<stop stop-color="white"/>
<stop offset="0.15" stop-color="#C4C4C4" stop-opacity="0.77"/>
<stop offset="0.32" stop-color="#898989" stop-opacity="0.54"/>
<stop offset="0.48" stop-color="#585858" stop-opacity="0.35"/>
<stop offset="0.64" stop-color="#323232" stop-opacity="0.2"/>
<stop offset="0.78" stop-color="#161616" stop-opacity="0.09"/>
<stop offset="0.9" stop-color="#050505" stop-opacity="0.02"/>
<stop offset="1" stop-opacity="0"/>
</radialGradient>
<radialGradient id="paint21_radial_15_2078" cx="0" cy="0" r="1" gradientUnits="userSpaceOnUse" gradientTransform="translate(32.1501 51.58) scale(13.1362 13.2394)">
<stop stop-color="white"/>
<stop offset="0.15" stop-color="#C4C4C4" stop-opacity="0.77"/>
<stop offset="0.32" stop-color="#898989" stop-opacity="0.54"/>
<stop offset="0.48" stop-color="#585858" stop-opacity="0.35"/>
<stop offset="0.64" stop-color="#323232" stop-opacity="0.2"/>
<stop offset="0.78" stop-color="#161616" stop-opacity="0.09"/>
<stop offset="0.9" stop-color="#050505" stop-opacity="0.02"/>
<stop offset="1" stop-opacity="0"/>
</radialGradient>
<radialGradient id="paint22_radial_15_2078" cx="0" cy="0" r="1" gradientUnits="userSpaceOnUse" gradientTransform="translate(58.3974 85.3822) scale(21.2204 21.3872)">
<stop stop-color="white"/>
<stop offset="0.15" stop-color="#C4C4C4" stop-opacity="0.77"/>
<stop offset="0.32" stop-color="#898989" stop-opacity="0.54"/>
<stop offset="0.48" stop-color="#585858" stop-opacity="0.35"/>
<stop offset="0.64" stop-color="#323232" stop-opacity="0.2"/>
<stop offset="0.78" stop-color="#161616" stop-opacity="0.09"/>
<stop offset="0.9" stop-color="#050505" stop-opacity="0.02"/>
<stop offset="1" stop-opacity="0"/>
</radialGradient>
<radialGradient id="paint23_radial_15_2078" cx="0" cy="0" r="1" gradientUnits="userSpaceOnUse" gradientTransform="translate(136.374 165.446) rotate(152.699) scale(143.009 6.42429)">
<stop stop-color="white"/>
<stop offset="0.16" stop-color="#C0C0C0" stop-opacity="0.75"/>
<stop offset="0.32" stop-color="#868686" stop-opacity="0.53"/>
<stop offset="0.48" stop-color="#565656" stop-opacity="0.34"/>
<stop offset="0.63" stop-color="#303030" stop-opacity="0.19"/>
<stop offset="0.77" stop-color="#161616" stop-opacity="0.09"/>
<stop offset="0.9" stop-color="#050505" stop-opacity="0.02"/>
<stop offset="0.99" stop-opacity="0"/>
</radialGradient>
<radialGradient id="paint24_radial_15_2078" cx="0" cy="0" r="1" gradientUnits="userSpaceOnUse" gradientTransform="translate(159.141 218.001) rotate(152.699) scale(63.9871 23.536)">
<stop stop-color="#F8F8F8" stop-opacity="0.98"/>
<stop offset="0.09" stop-color="#C5C5C5" stop-opacity="0.77"/>
<stop offset="0.17" stop-color="#969696" stop-opacity="0.59"/>
<stop offset="0.26" stop-color="#6D6D6D" stop-opacity="0.43"/>
<stop offset="0.35" stop-color="#4B4B4B" stop-opacity="0.3"/>
<stop offset="0.44" stop-color="#303030" stop-opacity="0.19"/>
<stop offset="0.55" stop-color="#1A1A1A" stop-opacity="0.1"/>
<stop offset="0.66" stop-color="#0B0B0B" stop-opacity="0.05"/>
<stop offset="0.8" stop-color="#020202" stop-opacity="0.01"/>
<stop offset="1" stop-opacity="0"/>
</radialGradient>
<radialGradient id="paint25_radial_15_2078" cx="0" cy="0" r="1" gradientUnits="userSpaceOnUse" gradientTransform="translate(143.233 171.511) rotate(152.699) scale(110.018 19.4241)">
<stop stop-color="#F8F8F8" stop-opacity="0.98"/>
<stop offset="0.09" stop-color="#C5C5C5" stop-opacity="0.77"/>
<stop offset="0.17" stop-color="#969696" stop-opacity="0.59"/>
<stop offset="0.26" stop-color="#6D6D6D" stop-opacity="0.43"/>
<stop offset="0.35" stop-color="#4B4B4B" stop-opacity="0.3"/>
<stop offset="0.44" stop-color="#303030" stop-opacity="0.19"/>
<stop offset="0.55" stop-color="#1A1A1A" stop-opacity="0.1"/>
<stop offset="0.66" stop-color="#0B0B0B" stop-opacity="0.05"/>
<stop offset="0.8" stop-color="#020202" stop-opacity="0.01"/>
<stop offset="1" stop-opacity="0"/>
</radialGradient>
<radialGradient id="paint26_radial_15_2078" cx="0" cy="0" r="1" gradientUnits="userSpaceOnUse" gradientTransform="translate(54.4534 191.977) rotate(176.633) scale(54.4128 4.0776)">
<stop stop-color="white"/>
<stop offset="0.16" stop-color="#C0C0C0" stop-opacity="0.75"/>
<stop offset="0.32" stop-color="#868686" stop-opacity="0.53"/>
<stop offset="0.48" stop-color="#565656" stop-opacity="0.34"/>
<stop offset="0.63" stop-color="#303030" stop-opacity="0.19"/>
<stop offset="0.77" stop-color="#161616" stop-opacity="0.09"/>
<stop offset="0.9" stop-color="#050505" stop-opacity="0.02"/>
<stop offset="0.99" stop-opacity="0"/>
</radialGradient>
<radialGradient id="paint27_radial_15_2078" cx="0" cy="0" r="1" gradientUnits="userSpaceOnUse" gradientTransform="translate(63.5141 253.07) rotate(176.623) scale(24.2181 14.9412)">
<stop stop-color="#F8F8F8" stop-opacity="0.98"/>
<stop offset="0.09" stop-color="#C5C5C5" stop-opacity="0.77"/>
<stop offset="0.17" stop-color="#969696" stop-opacity="0.59"/>
<stop offset="0.26" stop-color="#6D6D6D" stop-opacity="0.43"/>
<stop offset="0.35" stop-color="#4B4B4B" stop-opacity="0.3"/>
<stop offset="0.44" stop-color="#303030" stop-opacity="0.19"/>
<stop offset="0.55" stop-color="#1A1A1A" stop-opacity="0.1"/>
<stop offset="0.66" stop-color="#0B0B0B" stop-opacity="0.05"/>
<stop offset="0.8" stop-color="#020202" stop-opacity="0.01"/>
<stop offset="1" stop-opacity="0"/>
</radialGradient>
<radialGradient id="paint28_radial_15_2078" cx="0" cy="0" r="1" gradientUnits="userSpaceOnUse" gradientTransform="translate(59.188 201.893) rotate(176.623) scale(41.7919 12.3284)">
<stop stop-color="#F8F8F8" stop-opacity="0.98"/>
<stop offset="0.09" stop-color="#C5C5C5" stop-opacity="0.77"/>
<stop offset="0.17" stop-color="#969696" stop-opacity="0.59"/>
<stop offset="0.26" stop-color="#6D6D6D" stop-opacity="0.43"/>
<stop offset="0.35" stop-color="#4B4B4B" stop-opacity="0.3"/>
<stop offset="0.44" stop-color="#303030" stop-opacity="0.19"/>
<stop offset="0.55" stop-color="#1A1A1A" stop-opacity="0.1"/>
<stop offset="0.66" stop-color="#0B0B0B" stop-opacity="0.05"/>
<stop offset="0.8" stop-color="#020202" stop-opacity="0.01"/>
<stop offset="1" stop-opacity="0"/>
</radialGradient>
<radialGradient id="paint29_radial_15_2078" cx="0" cy="0" r="1" gradientUnits="userSpaceOnUse" gradientTransform="translate(183.813 126.44) rotate(-95.8348) scale(37.0243 2.71958)">
<stop stop-color="white"/>
<stop offset="0.16" stop-color="#C0C0C0" stop-opacity="0.75"/>
<stop offset="0.32" stop-color="#868686" stop-opacity="0.53"/>
<stop offset="0.48" stop-color="#565656" stop-opacity="0.34"/>
<stop offset="0.63" stop-color="#303030" stop-opacity="0.19"/>
<stop offset="0.77" stop-color="#161616" stop-opacity="0.09"/>
<stop offset="0.9" stop-color="#050505" stop-opacity="0.02"/>
<stop offset="0.99" stop-opacity="0"/>
</radialGradient>
<radialGradient id="paint30_radial_15_2078" cx="0" cy="0" r="1" gradientUnits="userSpaceOnUse" gradientTransform="translate(135.394 132.696) rotate(-95.8348) scale(16.5653 10.2398)">
<stop stop-color="#F8F8F8" stop-opacity="0.98"/>
<stop offset="0.09" stop-color="#C5C5C5" stop-opacity="0.77"/>
<stop offset="0.17" stop-color="#969696" stop-opacity="0.59"/>
<stop offset="0.26" stop-color="#6D6D6D" stop-opacity="0.43"/>
<stop offset="0.35" stop-color="#4B4B4B" stop-opacity="0.3"/>
<stop offset="0.44" stop-color="#303030" stop-opacity="0.19"/>
<stop offset="0.55" stop-color="#1A1A1A" stop-opacity="0.1"/>
<stop offset="0.66" stop-color="#0B0B0B" stop-opacity="0.05"/>
<stop offset="0.8" stop-color="#020202" stop-opacity="0.01"/>
<stop offset="1" stop-opacity="0"/>
</radialGradient>
<radialGradient id="paint31_radial_15_2078" cx="0" cy="0" r="1" gradientUnits="userSpaceOnUse" gradientTransform="translate(136.917 134.304) rotate(-95.8348) scale(28.6339 8.55733)">
<stop stop-color="#F8F8F8" stop-opacity="0.98"/>
<stop offset="0.09" stop-color="#C5C5C5" stop-opacity="0.77"/>
<stop offset="0.17" stop-color="#969696" stop-opacity="0.59"/>
<stop offset="0.26" stop-color="#6D6D6D" stop-opacity="0.43"/>
<stop offset="0.35" stop-color="#4B4B4B" stop-opacity="0.3"/>
<stop offset="0.44" stop-color="#303030" stop-opacity="0.19"/>
<stop offset="0.55" stop-color="#1A1A1A" stop-opacity="0.1"/>
<stop offset="0.66" stop-color="#0B0B0B" stop-opacity="0.05"/>
<stop offset="0.8" stop-color="#020202" stop-opacity="0.01"/>
<stop offset="1" stop-opacity="0"/>
</radialGradient>
<radialGradient id="paint32_radial_15_2078" cx="0" cy="0" r="1" gradientUnits="userSpaceOnUse" gradientTransform="translate(145.82 282.753) scale(109.722 30.5703)">
<stop stop-color="#16D3F9"/>
<stop offset="0.04" stop-color="#16D3F9" stop-opacity="0.92"/>
<stop offset="0.15" stop-color="#16D3F9" stop-opacity="0.71"/>
<stop offset="0.26" stop-color="#16D3F9" stop-opacity="0.52"/>
<stop offset="0.37" stop-color="#16D3F9" stop-opacity="0.36"/>
<stop offset="0.48" stop-color="#16D3F9" stop-opacity="0.23"/>
<stop offset="0.6" stop-color="#16D3F9" stop-opacity="0.13"/>
<stop offset="0.72" stop-color="#16D3F9" stop-opacity="0.06"/>
<stop offset="0.85" stop-color="#16D3F9" stop-opacity="0.01"/>
<stop offset="1" stop-color="#16D3F9" stop-opacity="0"/>
</radialGradient>
<radialGradient id="paint33_radial_15_2078" cx="0" cy="0" r="1" gradientUnits="userSpaceOnUse" gradientTransform="translate(145.82 -857.56) scale(61.4911 17.1323)">
<stop stop-color="#16D3F9"/>
<stop offset="0.04" stop-color="#16D3F9" stop-opacity="0.92"/>
<stop offset="0.15" stop-color="#16D3F9" stop-opacity="0.71"/>
<stop offset="0.26" stop-color="#16D3F9" stop-opacity="0.52"/>
<stop offset="0.37" stop-color="#16D3F9" stop-opacity="0.36"/>
<stop offset="0.48" stop-color="#16D3F9" stop-opacity="0.23"/>
<stop offset="0.6" stop-color="#16D3F9" stop-opacity="0.13"/>
<stop offset="0.72" stop-color="#16D3F9" stop-opacity="0.06"/>
<stop offset="0.85" stop-color="#16D3F9" stop-opacity="0.01"/>
<stop offset="1" stop-color="#16D3F9" stop-opacity="0"/>
</radialGradient>
</defs>
</svg>
