<svg width="13" height="15" viewBox="0 0 13 15" fill="none" xmlns="http://www.w3.org/2000/svg">
<path d="M11.263 5.94704H11.9647C12.1509 5.94704 12.3293 6.02098 12.461 6.15258C12.5926 6.28419 12.6665 6.46268 12.6665 6.6488V13.6663C12.6665 13.8525 12.5926 14.031 12.461 14.1626C12.3293 14.2942 12.1509 14.3681 11.9647 14.3681H0.736667C0.55055 14.3681 0.372056 14.2942 0.240451 14.1626C0.108847 14.031 0.0349121 13.8525 0.0349121 13.6663V6.6488C0.0349121 6.46268 0.108847 6.28419 0.240451 6.15258C0.372056 6.02098 0.55055 5.94704 0.736667 5.94704H1.43842V5.24529C1.43842 4.6002 1.56548 3.96143 1.81235 3.36544C2.05921 2.76945 2.42105 2.22793 2.87719 1.77178C3.33334 1.31563 3.87487 0.953798 4.47085 0.706933C5.06684 0.460068 5.70561 0.333008 6.3507 0.333008C6.99579 0.333008 7.63456 0.460068 8.23055 0.706933C8.82654 0.953798 9.36806 1.31563 9.82421 1.77178C10.2804 2.22793 10.6422 2.76945 10.8891 3.36544C11.1359 3.96143 11.263 4.6002 11.263 5.24529V5.94704ZM1.43842 7.35055V12.9646H11.263V7.35055H1.43842ZM5.64895 8.75406H7.05246V11.5611H5.64895V8.75406ZM9.85947 5.94704V5.24529C9.85947 4.3147 9.4898 3.42223 8.83178 2.76421C8.17376 2.10619 7.28129 1.73652 6.3507 1.73652C5.42012 1.73652 4.52765 2.10619 3.86963 2.76421C3.2116 3.42223 2.84193 4.3147 2.84193 5.24529V5.94704H9.85947Z" fill="#545764"/>
</svg>
