<svg width="41" height="33" viewBox="0 0 41 33" fill="none" xmlns="http://www.w3.org/2000/svg">
<mask id="mask0_720_636" style="mask-type:luminance" maskUnits="userSpaceOnUse" x="0" y="0" width="41" height="33">
<path d="M31.9165 10.1662C37.1101 11.2959 41 15.9184 41 21.4508C41 27.8292 35.829 32.9999 29.4505 32.9999H26.9604C25.8563 32.9999 24.9363 32.1718 24.7911 31.1056H24.7708V19.4371C24.7708 18.2329 25.7562 17.2475 26.9604 17.2475C28.1646 17.2475 29.15 18.2329 29.15 19.4371V28.621H29.4505C33.4121 28.621 36.6208 25.412 36.6208 21.4508C36.6208 18.0848 34.2713 15.1596 30.9857 14.445L28.0419 13.8047L27.5877 10.8266C27.0549 7.33562 24.033 4.75225 20.4998 4.75225C16.9667 4.75225 13.9451 7.33562 13.4123 10.8266L12.9581 13.8047L10.014 14.445C6.72873 15.1596 4.37888 18.0848 4.37888 21.4508C4.37888 25.412 7.58789 28.621 11.5491 28.621H11.85V19.4371C11.85 18.2329 12.8351 17.2475 14.0393 17.2475H14.0396C15.2438 17.2475 16.2289 18.2329 16.2289 19.4371V31.1056H16.2089C16.0637 32.1718 15.1437 32.9999 14.0396 32.9999H11.5491C5.17067 32.9999 0 27.8292 0 21.4508C0 15.9184 3.88961 11.2959 9.08349 10.1662C9.92925 4.6211 14.7186 0.373047 20.4998 0.373047C26.2811 0.373047 31.0704 4.6211 31.9165 10.1662ZM22.6894 14.7211V30.8106C22.6894 32.0148 21.704 32.9999 20.4998 32.9999C19.2956 32.9999 18.3106 32.0148 18.3106 30.8106V14.7211C18.3106 13.5169 19.2956 12.5318 20.4998 12.5318C21.704 12.5318 22.6894 13.5169 22.6894 14.7211Z" fill="white"/>
</mask>
<g mask="url(#mask0_720_636)">
<path d="M-0.000274658 0.37207H40.9987V32.9986H-0.000274658V0.37207Z" fill="#26A4FF"/>
</g>
</svg>
