<svg width="10" height="12" viewBox="0 0 10 12" fill="none" xmlns="http://www.w3.org/2000/svg">
<path d="M2.66683 1.33366V4.71291C2.66675 5.09894 2.51361 5.46918 2.241 5.74249L1.50016 6.48624V10.667H8.50016V1.33366H2.66683ZM2.0835 0.166992H9.0835C9.2382 0.166992 9.38658 0.22845 9.49598 0.337847C9.60537 0.447243 9.66683 0.595616 9.66683 0.750326V11.2503C9.66683 11.405 9.60537 11.5534 9.49598 11.6628C9.38658 11.7722 9.2382 11.8337 9.0835 11.8337H0.916829C0.76212 11.8337 0.613747 11.7722 0.504351 11.6628C0.394954 11.5534 0.333496 11.405 0.333496 11.2503V6.24533C0.333529 6.09091 0.394782 5.94282 0.503829 5.83349L1.415 4.91883C1.46952 4.86416 1.50015 4.79011 1.50016 4.71291V0.750326C1.50016 0.595616 1.56162 0.447243 1.67102 0.337847C1.78041 0.22845 1.92879 0.166992 2.0835 0.166992ZM6.75016 1.91699H7.91683V4.25033H6.75016V1.91699ZM5.00016 1.91699H6.16683V4.25033H5.00016V1.91699ZM3.25016 1.91699H4.41683V4.25033H3.25016V1.91699Z" fill="#545764"/>
</svg>
