<svg width="12" height="16" viewBox="0 0 12 16" fill="none" xmlns="http://www.w3.org/2000/svg">
<path d="M0.736694 15.3687C0.736694 13.8797 1.32817 12.4518 2.38101 11.399C3.43384 10.3461 4.86179 9.75464 6.35073 9.75464C7.83966 9.75464 9.26762 10.3461 10.3205 11.399C11.3733 12.4518 11.9648 13.8797 11.9648 15.3687H10.5613C10.5613 14.252 10.1176 13.181 9.32802 12.3914C8.5384 11.6018 7.46743 11.1582 6.35073 11.1582C5.23403 11.1582 4.16306 11.6018 3.37344 12.3914C2.58381 13.181 2.1402 14.252 2.1402 15.3687H0.736694ZM6.35073 9.05289C4.02441 9.05289 2.1402 7.16868 2.1402 4.84236C2.1402 2.51605 4.02441 0.631836 6.35073 0.631836C8.67705 0.631836 10.5613 2.51605 10.5613 4.84236C10.5613 7.16868 8.67705 9.05289 6.35073 9.05289ZM6.35073 7.64938C7.90161 7.64938 9.15775 6.39324 9.15775 4.84236C9.15775 3.29149 7.90161 2.03534 6.35073 2.03534C4.79985 2.03534 3.54371 3.29149 3.54371 4.84236C3.54371 6.39324 4.79985 7.64938 6.35073 7.64938Z" fill="#545764"/>
</svg>
