<svg width="16" height="16" viewBox="0 0 16 16" fill="none" xmlns="http://www.w3.org/2000/svg">
<path d="M13.3121 14.1071C11.9111 15.3211 10.1188 15.9882 8.26502 15.9856C4.00081 15.9856 0.544189 12.529 0.544189 8.26478C0.544189 4.00056 4.00081 0.543945 8.26502 0.543945C12.5292 0.543945 15.9859 4.00056 15.9859 8.26478C15.9859 9.91395 15.4686 11.4427 14.5884 12.6965L12.1254 8.26478H14.4417C14.4416 6.84122 13.9497 5.46139 13.0494 4.35872C12.149 3.25606 10.8954 2.49824 9.50061 2.21347C8.10583 1.92869 6.65549 2.13445 5.39494 2.79593C4.1344 3.45741 3.14103 4.534 2.58289 5.84359C2.02476 7.15317 1.93611 8.61535 2.33194 9.98277C2.72778 11.3502 3.5838 12.5389 4.7552 13.3478C5.92659 14.1568 7.34145 14.5362 8.76043 14.4221C10.1794 14.3079 11.5154 13.7071 12.5424 12.7212L13.3121 14.1071Z" fill="#545764"/>
</svg>
