<svg width="20" height="26" viewBox="0 0 20 26" fill="none" xmlns="http://www.w3.org/2000/svg">
<path d="M2.5 3V23H17.5V7.78554L12.7145 3H2.5ZM1.25 0.5H13.75L19.6339 6.38389C19.8682 6.6183 20 6.93625 20 7.26776V24.25C20 24.9404 19.4404 25.5 18.75 25.5H1.25C0.55965 25.5 0 24.9404 0 24.25V1.75C0 1.05965 0.55965 0.5 1.25 0.5ZM11.25 10.5V20.5H8.75V13H5V10.5H11.25ZM5 14.25H7.5V16.75H5V14.25ZM12.5 14.25H15V16.75H12.5V14.25ZM12.5 10.5H15V13H12.5V10.5ZM5 18H7.5V20.5H5V18ZM12.5 18H15V20.5H12.5V18Z" fill="#545764"/>
</svg>
