<svg width="24" height="25" viewBox="0 0 24 25" fill="none" xmlns="http://www.w3.org/2000/svg">
<path d="M3.25 12.625C3.25 13.0168 3.82626 13.698 5.16309 14.3664C6.89256 15.2311 9.34596 15.75 12 15.75C14.654 15.75 17.1074 15.2311 18.8369 14.3664C20.1737 13.698 20.75 13.0168 20.75 12.625V9.91088C18.6875 11.1853 15.5341 12 12 12C8.46591 12 5.31245 11.1853 3.25 9.91088V12.625ZM20.75 16.1609C18.6875 17.4352 15.5341 18.25 12 18.25C8.46591 18.25 5.31245 17.4352 3.25 16.1609V18.875C3.25 19.2668 3.82626 19.948 5.16309 20.6164C6.89256 21.4811 9.34596 22 12 22C14.654 22 17.1074 21.4811 18.8369 20.6164C20.1737 19.948 20.75 19.2668 20.75 18.875V16.1609ZM0.75 18.875V6.375C0.75 3.2684 5.7868 0.75 12 0.75C18.2132 0.75 23.25 3.2684 23.25 6.375V18.875C23.25 21.9816 18.2132 24.5 12 24.5C5.7868 24.5 0.75 21.9816 0.75 18.875ZM12 9.5C14.654 9.5 17.1074 8.98115 18.8369 8.11641C20.1737 7.448 20.75 6.76678 20.75 6.375C20.75 5.98322 20.1737 5.302 18.8369 4.63359C17.1074 3.76885 14.654 3.25 12 3.25C9.34596 3.25 6.89256 3.76885 5.16309 4.63359C3.82626 5.302 3.25 5.98322 3.25 6.375C3.25 6.76678 3.82626 7.448 5.16309 8.11641C6.89256 8.98115 9.34596 9.5 12 9.5Z" fill="#545764"/>
</svg>
