<svg width="17" height="17" viewBox="0 0 17 17" fill="none" xmlns="http://www.w3.org/2000/svg">
<path d="M3.95885 2.06236L4.84425 3.32755C3.76832 4.08078 2.96056 5.15741 2.5383 6.40107C2.11604 7.64472 2.10127 8.99061 2.49616 10.2432C2.89104 11.4958 3.675 12.5899 4.73415 13.3666C5.7933 14.1432 7.07248 14.5619 8.38587 14.5619C9.69925 14.5619 10.9784 14.1432 12.0376 13.3666C13.0967 12.5899 13.8807 11.4958 14.2756 10.2432C14.6705 8.99061 14.6557 7.64472 14.2334 6.40107C13.8112 5.15741 13.0034 4.08078 11.9275 3.32755L12.8129 2.06236C13.8302 2.77363 14.6608 3.72004 15.234 4.82113C15.8072 5.92222 16.1061 7.14543 16.1052 8.38678C16.1052 12.6501 12.6492 16.1061 8.38587 16.1061C4.1225 16.1061 0.666567 12.6501 0.666567 8.38678C0.665673 7.14543 0.964523 5.92222 1.53771 4.82113C2.1109 3.72004 2.94148 2.77363 3.95885 2.06236ZM7.61394 8.38678V0.66748H9.15779V8.38678H7.61394Z" fill="#545764"/>
</svg>
