<svg width="30" height="24" viewBox="0 0 30 24" fill="none" xmlns="http://www.w3.org/2000/svg">
<path d="M0.861816 5.74574C4.72534 2.6213 9.64408 0.75 14.9999 0.75C20.3556 0.75 25.2744 2.6213 29.138 5.74574L26.7816 8.66311C23.562 6.05941 19.463 4.5 14.9999 4.5C10.5367 4.5 6.43776 6.05941 3.21816 8.66311L0.861816 5.74574ZM4.78905 10.608C7.57938 8.35149 11.1318 7 14.9999 7C18.868 7 22.4204 8.35149 25.2108 10.608L22.8544 13.5254C20.708 11.7896 17.9754 10.75 14.9999 10.75C12.0244 10.75 9.2918 11.7896 7.1454 13.5254L4.78905 10.608ZM8.7163 15.4704C10.4334 14.0816 12.6195 13.25 14.9999 13.25C17.3802 13.25 19.5664 14.0816 21.2835 15.4704L18.9271 18.3878C17.8539 17.5198 16.4876 17 14.9999 17C13.5121 17 12.1458 17.5198 11.0726 18.3878L8.7163 15.4704ZM12.6435 20.3326C13.2875 19.8119 14.1073 19.5 14.9999 19.5C15.8925 19.5 16.7123 19.8119 17.3563 20.3326L14.9999 23.25L12.6435 20.3326Z" fill="#545764"/>
</svg>
